<mxfile host="app.diagrams.net" agent="Mozilla/5.0 (Windows NT 10.0; Win64; x64) AppleWebKit/537.36 (KHTML, like Gecko) Chrome/136.0.0.0 Safari/537.36 Edg/136.0.0.0" version="27.0.4">
  <diagram id="C5RBs43oDa-KdzZeNtuy" name="Page-1">
    <mxGraphModel dx="1426" dy="832" grid="1" gridSize="10" guides="1" tooltips="1" connect="1" arrows="1" fold="1" page="1" pageScale="1" pageWidth="827" pageHeight="1169" math="0" shadow="0">
      <root>
        <mxCell id="WIyWlLk6GJQsqaUBKTNV-0" />
        <mxCell id="WIyWlLk6GJQsqaUBKTNV-1" parent="WIyWlLk6GJQsqaUBKTNV-0" />
        <mxCell id="Yx2THoh6e4f52CFqJNST-0" value="&lt;font style=&quot;font-size: 20px;&quot;&gt;Empleado&lt;/font&gt;" style="rounded=0;whiteSpace=wrap;html=1;" parent="WIyWlLk6GJQsqaUBKTNV-1" vertex="1">
          <mxGeometry x="445" y="147" width="200" height="100" as="geometry" />
        </mxCell>
        <mxCell id="Yx2THoh6e4f52CFqJNST-1" value="&lt;font style=&quot;font-size: 20px;&quot;&gt;Cliente&lt;/font&gt;" style="rounded=0;whiteSpace=wrap;html=1;" parent="WIyWlLk6GJQsqaUBKTNV-1" vertex="1">
          <mxGeometry x="155" y="990" width="200" height="90" as="geometry" />
        </mxCell>
        <mxCell id="Yx2THoh6e4f52CFqJNST-2" value="&lt;span style=&quot;font-size: 20px;&quot;&gt;Articulo&lt;/span&gt;" style="rounded=0;whiteSpace=wrap;html=1;" parent="WIyWlLk6GJQsqaUBKTNV-1" vertex="1">
          <mxGeometry x="699" y="1055" width="200" height="90" as="geometry" />
        </mxCell>
        <mxCell id="Yx2THoh6e4f52CFqJNST-3" value="&lt;span style=&quot;font-size: 20px;&quot;&gt;Categoria&lt;/span&gt;" style="rounded=0;whiteSpace=wrap;html=1;" parent="WIyWlLk6GJQsqaUBKTNV-1" vertex="1">
          <mxGeometry x="699" y="1500" width="200" height="90" as="geometry" />
        </mxCell>
        <mxCell id="Yx2THoh6e4f52CFqJNST-4" value="&lt;span style=&quot;font-size: 20px;&quot;&gt;Venta&lt;/span&gt;" style="rounded=0;whiteSpace=wrap;html=1;" parent="WIyWlLk6GJQsqaUBKTNV-1" vertex="1">
          <mxGeometry x="450" y="740" width="202.5" height="90" as="geometry" />
        </mxCell>
        <mxCell id="Yx2THoh6e4f52CFqJNST-7" value="&lt;font style=&quot;font-size: 20px;&quot;&gt;Usuario&lt;/font&gt;" style="text;html=1;align=center;verticalAlign=middle;resizable=0;points=[];autosize=1;strokeColor=none;fillColor=none;fontStyle=4" parent="WIyWlLk6GJQsqaUBKTNV-1" vertex="1">
          <mxGeometry x="435" y="60" width="90" height="40" as="geometry" />
        </mxCell>
        <mxCell id="Yx2THoh6e4f52CFqJNST-9" value="&lt;span style=&quot;font-size: 20px;&quot;&gt;Contrasena&lt;/span&gt;" style="text;html=1;align=center;verticalAlign=middle;resizable=0;points=[];autosize=1;strokeColor=none;fillColor=none;" parent="WIyWlLk6GJQsqaUBKTNV-1" vertex="1">
          <mxGeometry x="540" y="60" width="130" height="40" as="geometry" />
        </mxCell>
        <mxCell id="Yx2THoh6e4f52CFqJNST-11" value="&lt;span style=&quot;font-size: 20px;&quot;&gt;Nombre&lt;/span&gt;" style="text;html=1;align=center;verticalAlign=middle;resizable=0;points=[];autosize=1;strokeColor=none;fillColor=none;" parent="WIyWlLk6GJQsqaUBKTNV-1" vertex="1">
          <mxGeometry x="740" y="157" width="90" height="40" as="geometry" />
        </mxCell>
        <mxCell id="Yx2THoh6e4f52CFqJNST-17" value="&lt;span style=&quot;font-size: 20px;&quot;&gt;Cedula&lt;/span&gt;" style="text;html=1;align=center;verticalAlign=middle;resizable=0;points=[];autosize=1;strokeColor=none;fillColor=none;fontStyle=4" parent="WIyWlLk6GJQsqaUBKTNV-1" vertex="1">
          <mxGeometry y="920" width="90" height="40" as="geometry" />
        </mxCell>
        <mxCell id="Yx2THoh6e4f52CFqJNST-18" value="&lt;span style=&quot;font-size: 20px;&quot;&gt;Nombre&lt;/span&gt;" style="text;html=1;align=center;verticalAlign=middle;resizable=0;points=[];autosize=1;strokeColor=none;fillColor=none;" parent="WIyWlLk6GJQsqaUBKTNV-1" vertex="1">
          <mxGeometry x="20" y="1030" width="90" height="40" as="geometry" />
        </mxCell>
        <mxCell id="Yx2THoh6e4f52CFqJNST-19" value="&lt;span style=&quot;font-size: 20px;&quot;&gt;NumeroTrajeta&lt;/span&gt;" style="text;html=1;align=center;verticalAlign=middle;resizable=0;points=[];autosize=1;strokeColor=none;fillColor=none;" parent="WIyWlLk6GJQsqaUBKTNV-1" vertex="1">
          <mxGeometry x="430" y="970" width="160" height="40" as="geometry" />
        </mxCell>
        <mxCell id="Yx2THoh6e4f52CFqJNST-20" value="&lt;span style=&quot;font-size: 20px;&quot;&gt;Telefono&lt;/span&gt;" style="text;html=1;align=center;verticalAlign=middle;resizable=0;points=[];autosize=1;strokeColor=none;fillColor=none;" parent="WIyWlLk6GJQsqaUBKTNV-1" vertex="1">
          <mxGeometry x="450" y="1050" width="100" height="40" as="geometry" />
        </mxCell>
        <mxCell id="Yx2THoh6e4f52CFqJNST-28" value="&lt;span style=&quot;font-size: 20px;&quot;&gt;Codigo&lt;/span&gt;" style="text;html=1;align=center;verticalAlign=middle;resizable=0;points=[];autosize=1;strokeColor=none;fillColor=none;fontStyle=4" parent="WIyWlLk6GJQsqaUBKTNV-1" vertex="1">
          <mxGeometry x="590" y="1005" width="90" height="40" as="geometry" />
        </mxCell>
        <mxCell id="Yx2THoh6e4f52CFqJNST-29" value="&lt;span style=&quot;font-size: 20px;&quot;&gt;Nombre&lt;/span&gt;" style="text;html=1;align=center;verticalAlign=middle;resizable=0;points=[];autosize=1;strokeColor=none;fillColor=none;" parent="WIyWlLk6GJQsqaUBKTNV-1" vertex="1">
          <mxGeometry x="1100" y="1169" width="90" height="40" as="geometry" />
        </mxCell>
        <mxCell id="Yx2THoh6e4f52CFqJNST-30" value="&lt;span style=&quot;font-size: 20px;&quot;&gt;Precio&lt;/span&gt;" style="text;html=1;align=center;verticalAlign=middle;resizable=0;points=[];autosize=1;strokeColor=none;fillColor=none;" parent="WIyWlLk6GJQsqaUBKTNV-1" vertex="1">
          <mxGeometry x="1120" y="1105" width="80" height="40" as="geometry" />
        </mxCell>
        <mxCell id="Yx2THoh6e4f52CFqJNST-31" value="&lt;span style=&quot;font-size: 20px;&quot;&gt;TipoPresentacion&lt;/span&gt;" style="text;html=1;align=center;verticalAlign=middle;resizable=0;points=[];autosize=1;strokeColor=none;fillColor=none;" parent="WIyWlLk6GJQsqaUBKTNV-1" vertex="1">
          <mxGeometry x="1050" y="1030" width="180" height="40" as="geometry" />
        </mxCell>
        <mxCell id="Yx2THoh6e4f52CFqJNST-32" value="&lt;span style=&quot;font-size: 20px;&quot;&gt;TamaÃ±o&lt;/span&gt;" style="text;html=1;align=center;verticalAlign=middle;resizable=0;points=[];autosize=1;strokeColor=none;fillColor=none;" parent="WIyWlLk6GJQsqaUBKTNV-1" vertex="1">
          <mxGeometry x="569" y="1100" width="90" height="40" as="geometry" />
        </mxCell>
        <mxCell id="Yx2THoh6e4f52CFqJNST-36" value="&lt;span style=&quot;font-size: 20px;&quot;&gt;Codigo&lt;/span&gt;" style="text;html=1;align=center;verticalAlign=middle;resizable=0;points=[];autosize=1;strokeColor=none;fillColor=none;fontStyle=4" parent="WIyWlLk6GJQsqaUBKTNV-1" vertex="1">
          <mxGeometry x="550" y="1490" width="90" height="40" as="geometry" />
        </mxCell>
        <mxCell id="Yx2THoh6e4f52CFqJNST-37" value="&lt;span style=&quot;font-size: 20px;&quot;&gt;Nombre&lt;/span&gt;" style="text;html=1;align=center;verticalAlign=middle;resizable=0;points=[];autosize=1;strokeColor=none;fillColor=none;" parent="WIyWlLk6GJQsqaUBKTNV-1" vertex="1">
          <mxGeometry x="1000" y="1480" width="90" height="40" as="geometry" />
        </mxCell>
        <mxCell id="Yx2THoh6e4f52CFqJNST-46" value="&lt;span style=&quot;font-size: 20px;&quot;&gt;NumeroVenta&lt;/span&gt;" style="text;html=1;align=center;verticalAlign=middle;resizable=0;points=[];autosize=1;strokeColor=none;fillColor=none;fontStyle=4" parent="WIyWlLk6GJQsqaUBKTNV-1" vertex="1">
          <mxGeometry x="345" y="650" width="150" height="40" as="geometry" />
        </mxCell>
        <mxCell id="Yx2THoh6e4f52CFqJNST-47" value="&lt;span style=&quot;font-size: 20px;&quot;&gt;Fecha&lt;/span&gt;" style="text;html=1;align=center;verticalAlign=middle;resizable=0;points=[];autosize=1;strokeColor=none;fillColor=none;" parent="WIyWlLk6GJQsqaUBKTNV-1" vertex="1">
          <mxGeometry x="715" y="610" width="80" height="40" as="geometry" />
        </mxCell>
        <mxCell id="Yx2THoh6e4f52CFqJNST-48" value="&lt;span style=&quot;font-size: 20px;&quot;&gt;Estado&lt;/span&gt;" style="text;html=1;align=center;verticalAlign=middle;resizable=0;points=[];autosize=1;strokeColor=none;fillColor=none;" parent="WIyWlLk6GJQsqaUBKTNV-1" vertex="1">
          <mxGeometry x="857" y="640" width="90" height="40" as="geometry" />
        </mxCell>
        <mxCell id="Yx2THoh6e4f52CFqJNST-49" value="&lt;span style=&quot;font-size: 20px;&quot;&gt;Direccion&lt;/span&gt;" style="text;html=1;align=center;verticalAlign=middle;resizable=0;points=[];autosize=1;strokeColor=none;fillColor=none;" parent="WIyWlLk6GJQsqaUBKTNV-1" vertex="1">
          <mxGeometry x="819" y="750" width="110" height="40" as="geometry" />
        </mxCell>
        <mxCell id="Yx2THoh6e4f52CFqJNST-53" value="&lt;span style=&quot;font-size: 20px;&quot;&gt;CantidadNumero&lt;/span&gt;" style="text;html=1;align=center;verticalAlign=middle;resizable=0;points=[];autosize=1;strokeColor=none;fillColor=none;" parent="WIyWlLk6GJQsqaUBKTNV-1" vertex="1">
          <mxGeometry x="30" y="650" width="170" height="40" as="geometry" />
        </mxCell>
        <mxCell id="Yx2THoh6e4f52CFqJNST-64" value="&lt;font style=&quot;font-size: 20px;&quot;&gt;Gestiona&lt;/font&gt;" style="rhombus;whiteSpace=wrap;html=1;" parent="WIyWlLk6GJQsqaUBKTNV-1" vertex="1">
          <mxGeometry x="480" y="367" width="130" height="130" as="geometry" />
        </mxCell>
        <mxCell id="Yx2THoh6e4f52CFqJNST-67" value="&lt;span style=&quot;font-size: 20px;&quot;&gt;Realiza&lt;/span&gt;" style="rhombus;whiteSpace=wrap;html=1;" parent="WIyWlLk6GJQsqaUBKTNV-1" vertex="1">
          <mxGeometry x="190" y="830" width="130" height="130" as="geometry" />
        </mxCell>
        <mxCell id="Yx2THoh6e4f52CFqJNST-68" value="&lt;span style=&quot;font-size: 20px;&quot;&gt;Contiene&lt;/span&gt;" style="rhombus;whiteSpace=wrap;html=1;" parent="WIyWlLk6GJQsqaUBKTNV-1" vertex="1">
          <mxGeometry x="734" y="830" width="130" height="130" as="geometry" />
        </mxCell>
        <mxCell id="Yx2THoh6e4f52CFqJNST-70" value="&lt;span style=&quot;font-size: 20px;&quot;&gt;Pertenece&amp;nbsp;&lt;/span&gt;" style="rhombus;whiteSpace=wrap;html=1;" parent="WIyWlLk6GJQsqaUBKTNV-1" vertex="1">
          <mxGeometry x="734" y="1260" width="130" height="130" as="geometry" />
        </mxCell>
        <mxCell id="Yx2THoh6e4f52CFqJNST-76" value="" style="endArrow=none;html=1;rounded=0;entryX=0.5;entryY=1;entryDx=0;entryDy=0;exitX=0.5;exitY=0;exitDx=0;exitDy=0;startArrow=none;startFill=0;startSize=15;" parent="WIyWlLk6GJQsqaUBKTNV-1" source="Yx2THoh6e4f52CFqJNST-64" target="Yx2THoh6e4f52CFqJNST-0" edge="1">
          <mxGeometry width="50" height="50" relative="1" as="geometry">
            <mxPoint x="320" y="367" as="sourcePoint" />
            <mxPoint x="370" y="317" as="targetPoint" />
          </mxGeometry>
        </mxCell>
        <mxCell id="Yx2THoh6e4f52CFqJNST-80" value="" style="endArrow=oval;html=1;rounded=0;entryX=0.5;entryY=1;entryDx=0;entryDy=0;exitX=0.5;exitY=0;exitDx=0;exitDy=0;startArrow=none;startFill=0;endFill=1;startSize=6;endSize=15;" parent="WIyWlLk6GJQsqaUBKTNV-1" source="Yx2THoh6e4f52CFqJNST-1" target="Yx2THoh6e4f52CFqJNST-67" edge="1">
          <mxGeometry width="50" height="50" relative="1" as="geometry">
            <mxPoint x="411" y="830" as="sourcePoint" />
            <mxPoint x="411" y="770" as="targetPoint" />
          </mxGeometry>
        </mxCell>
        <mxCell id="Yx2THoh6e4f52CFqJNST-86" value="" style="endArrow=none;html=1;rounded=0;entryX=0.5;entryY=1;entryDx=0;entryDy=0;exitX=0.5;exitY=0;exitDx=0;exitDy=0;endFill=0;startArrow=none;startFill=0;strokeWidth=1;endSize=15;startSize=15;" parent="WIyWlLk6GJQsqaUBKTNV-1" source="Yx2THoh6e4f52CFqJNST-70" target="Yx2THoh6e4f52CFqJNST-2" edge="1">
          <mxGeometry width="50" height="50" relative="1" as="geometry">
            <mxPoint x="910" y="1115" as="sourcePoint" />
            <mxPoint x="911" y="1010" as="targetPoint" />
          </mxGeometry>
        </mxCell>
        <mxCell id="Yx2THoh6e4f52CFqJNST-87" value="" style="endArrow=oval;html=1;rounded=0;entryX=0.5;entryY=1;entryDx=0;entryDy=0;exitX=0.5;exitY=0;exitDx=0;exitDy=0;endFill=1;endSize=15;" parent="WIyWlLk6GJQsqaUBKTNV-1" source="Yx2THoh6e4f52CFqJNST-3" target="Yx2THoh6e4f52CFqJNST-70" edge="1">
          <mxGeometry width="50" height="50" relative="1" as="geometry">
            <mxPoint x="1010" y="1830" as="sourcePoint" />
            <mxPoint x="1036" y="1300" as="targetPoint" />
          </mxGeometry>
        </mxCell>
        <mxCell id="Yx2THoh6e4f52CFqJNST-90" value="1" style="text;html=1;align=center;verticalAlign=middle;resizable=0;points=[];autosize=1;strokeColor=none;fillColor=none;" parent="WIyWlLk6GJQsqaUBKTNV-1" vertex="1">
          <mxGeometry x="549" y="247" width="30" height="30" as="geometry" />
        </mxCell>
        <mxCell id="Yx2THoh6e4f52CFqJNST-91" value="N" style="text;html=1;align=center;verticalAlign=middle;resizable=0;points=[];autosize=1;strokeColor=none;fillColor=none;" parent="WIyWlLk6GJQsqaUBKTNV-1" vertex="1">
          <mxGeometry x="560" y="710" width="30" height="30" as="geometry" />
        </mxCell>
        <mxCell id="Yx2THoh6e4f52CFqJNST-92" value="N" style="text;html=1;align=center;verticalAlign=middle;resizable=0;points=[];autosize=1;strokeColor=none;fillColor=none;" parent="WIyWlLk6GJQsqaUBKTNV-1" vertex="1">
          <mxGeometry x="420" y="800" width="30" height="30" as="geometry" />
        </mxCell>
        <mxCell id="Yx2THoh6e4f52CFqJNST-93" value="1" style="text;html=1;align=center;verticalAlign=middle;resizable=0;points=[];autosize=1;strokeColor=none;fillColor=none;" parent="WIyWlLk6GJQsqaUBKTNV-1" vertex="1">
          <mxGeometry x="405" y="1010" width="30" height="30" as="geometry" />
        </mxCell>
        <mxCell id="Yx2THoh6e4f52CFqJNST-94" value="N" style="text;html=1;align=center;verticalAlign=middle;resizable=0;points=[];autosize=1;strokeColor=none;fillColor=none;" parent="WIyWlLk6GJQsqaUBKTNV-1" vertex="1">
          <mxGeometry x="800" y="970" width="30" height="30" as="geometry" />
        </mxCell>
        <mxCell id="Yx2THoh6e4f52CFqJNST-95" value="N" style="text;html=1;align=center;verticalAlign=middle;resizable=0;points=[];autosize=1;strokeColor=none;fillColor=none;" parent="WIyWlLk6GJQsqaUBKTNV-1" vertex="1">
          <mxGeometry x="800" y="1145" width="30" height="30" as="geometry" />
        </mxCell>
        <mxCell id="Yx2THoh6e4f52CFqJNST-96" value="1" style="text;html=1;align=center;verticalAlign=middle;resizable=0;points=[];autosize=1;strokeColor=none;fillColor=none;" parent="WIyWlLk6GJQsqaUBKTNV-1" vertex="1">
          <mxGeometry x="899" y="1520" width="30" height="30" as="geometry" />
        </mxCell>
        <mxCell id="LHj2QwTX_0UiF9E1hHu6-0" value="" style="whiteSpace=wrap;html=1;" parent="WIyWlLk6GJQsqaUBKTNV-1" vertex="1">
          <mxGeometry x="62.5" y="2540" width="679.25" height="270" as="geometry" />
        </mxCell>
        <mxCell id="LHj2QwTX_0UiF9E1hHu6-1" value="&lt;font style=&quot;font-size: 20px;&quot;&gt;&lt;u&gt;Pasaje a tabla :&amp;nbsp;&lt;/u&gt;&lt;/font&gt;" style="text;html=1;align=center;verticalAlign=middle;resizable=0;points=[];autosize=1;strokeColor=none;fillColor=none;" parent="WIyWlLk6GJQsqaUBKTNV-1" vertex="1">
          <mxGeometry x="100" y="2570" width="170" height="40" as="geometry" />
        </mxCell>
        <mxCell id="LHj2QwTX_0UiF9E1hHu6-3" value="Empleado (&lt;u style=&quot;&quot;&gt;Usuario&lt;/u&gt;, Contrasena, Nombre)" style="text;html=1;align=center;verticalAlign=middle;resizable=0;points=[];autosize=1;strokeColor=none;fillColor=none;" parent="WIyWlLk6GJQsqaUBKTNV-1" vertex="1">
          <mxGeometry x="110" y="2640" width="250" height="30" as="geometry" />
        </mxCell>
        <mxCell id="LHj2QwTX_0UiF9E1hHu6-4" value="Venta (&lt;u&gt;NumeroVenta&lt;/u&gt;, Fecha, Estado, Direccion, CantidadNumero, Usuario, Codigo, Cedula)" style="text;html=1;align=center;verticalAlign=middle;resizable=0;points=[];autosize=1;strokeColor=none;fillColor=none;" parent="WIyWlLk6GJQsqaUBKTNV-1" vertex="1">
          <mxGeometry x="110" y="2670" width="510" height="30" as="geometry" />
        </mxCell>
        <mxCell id="LHj2QwTX_0UiF9E1hHu6-5" value="Cliente(Nombre, &lt;u&gt;Cedula&lt;/u&gt;, NumeroTarjeta, Telefono)" style="text;html=1;align=center;verticalAlign=middle;resizable=0;points=[];autosize=1;strokeColor=none;fillColor=none;" parent="WIyWlLk6GJQsqaUBKTNV-1" vertex="1">
          <mxGeometry x="110" y="2700" width="290" height="30" as="geometry" />
        </mxCell>
        <mxCell id="LHj2QwTX_0UiF9E1hHu6-6" value="Articulo (&lt;u&gt;Codigo&lt;/u&gt;, TamaÃ±o, &lt;b&gt;CodigoCategoria&lt;/b&gt;, TipoPresentacion, Precio, Nombre)" style="text;html=1;align=center;verticalAlign=middle;resizable=0;points=[];autosize=1;strokeColor=none;fillColor=none;" parent="WIyWlLk6GJQsqaUBKTNV-1" vertex="1">
          <mxGeometry x="110" y="2730" width="450" height="30" as="geometry" />
        </mxCell>
        <mxCell id="LHj2QwTX_0UiF9E1hHu6-7" value="Categoria (&lt;u&gt;Codigo&lt;/u&gt;, Nombre)" style="text;html=1;align=center;verticalAlign=middle;resizable=0;points=[];autosize=1;strokeColor=none;fillColor=none;" parent="WIyWlLk6GJQsqaUBKTNV-1" vertex="1">
          <mxGeometry x="110" y="2760" width="170" height="30" as="geometry" />
        </mxCell>
        <mxCell id="TrfP6EzOv8uq6AP91T5V-0" value="" style="whiteSpace=wrap;html=1;" parent="WIyWlLk6GJQsqaUBKTNV-1" vertex="1">
          <mxGeometry x="60.75" y="2860" width="681" height="360" as="geometry" />
        </mxCell>
        <mxCell id="TrfP6EzOv8uq6AP91T5V-1" value="&lt;span style=&quot;font-size: 20px;&quot;&gt;&lt;u&gt;RNE :&amp;nbsp;&lt;/u&gt;&lt;/span&gt;" style="text;html=1;align=center;verticalAlign=middle;resizable=0;points=[];autosize=1;strokeColor=none;fillColor=none;" parent="WIyWlLk6GJQsqaUBKTNV-1" vertex="1">
          <mxGeometry x="110" y="2903" width="80" height="40" as="geometry" />
        </mxCell>
        <mxCell id="TrfP6EzOv8uq6AP91T5V-3" value="1 -&amp;nbsp;CategorÃ­as de ArtÃ­culos : Identificador Ãºnico de 6 caracteres para Categorias" style="text;html=1;align=center;verticalAlign=middle;resizable=0;points=[];autosize=1;strokeColor=none;fillColor=none;" parent="WIyWlLk6GJQsqaUBKTNV-1" vertex="1">
          <mxGeometry x="80" y="2960" width="450" height="30" as="geometry" />
        </mxCell>
        <mxCell id="TrfP6EzOv8uq6AP91T5V-4" value="2 -&amp;nbsp;ArtÃ­culos FarmacÃ©uticos : Cada artÃ­culo debe tener un cÃ³digo Ãºnico (10 Caracteres, Letras/Numeros)&amp;nbsp;" style="text;html=1;align=center;verticalAlign=middle;resizable=0;points=[];autosize=1;strokeColor=none;fillColor=none;" parent="WIyWlLk6GJQsqaUBKTNV-1" vertex="1">
          <mxGeometry x="80" y="2990" width="580" height="30" as="geometry" />
        </mxCell>
        <mxCell id="TrfP6EzOv8uq6AP91T5V-5" value="3 - Cliente : El nÃºmero de cÃ©dula del cliente actÃºa como identificador Ãºnico en el sistema" style="text;html=1;align=center;verticalAlign=middle;resizable=0;points=[];autosize=1;strokeColor=none;fillColor=none;" parent="WIyWlLk6GJQsqaUBKTNV-1" vertex="1">
          <mxGeometry x="74" y="3020" width="500" height="30" as="geometry" />
        </mxCell>
        <mxCell id="TrfP6EzOv8uq6AP91T5V-6" value="4 -&amp;nbsp;Venta : Cada venta debe tener un nÃºmero Ãºnico autogenerado por el sistema" style="text;html=1;align=center;verticalAlign=middle;resizable=0;points=[];autosize=1;strokeColor=none;fillColor=none;" parent="WIyWlLk6GJQsqaUBKTNV-1" vertex="1">
          <mxGeometry x="79" y="3050" width="450" height="30" as="geometry" />
        </mxCell>
        <mxCell id="TrfP6EzOv8uq6AP91T5V-7" value="5 - Estado de la Venta : Los estados vÃ¡lidos (Armado, EnvÃ­o, Entregado, Devuelto)" style="text;html=1;align=center;verticalAlign=middle;resizable=0;points=[];autosize=1;strokeColor=none;fillColor=none;" parent="WIyWlLk6GJQsqaUBKTNV-1" vertex="1">
          <mxGeometry x="81.25" y="3080" width="460" height="30" as="geometry" />
        </mxCell>
        <mxCell id="TrfP6EzOv8uq6AP91T5V-9" value="6 -&amp;nbsp; Tipo de PresentaciÃ³n del ArtÃ­culo :&amp;nbsp;Valores fijos: Unidad, BlÃ­ster, Sobre o Frasco.&amp;nbsp;" style="text;html=1;align=center;verticalAlign=middle;resizable=0;points=[];autosize=1;strokeColor=none;fillColor=none;" parent="WIyWlLk6GJQsqaUBKTNV-1" vertex="1">
          <mxGeometry x="81.25" y="3110" width="470" height="30" as="geometry" />
        </mxCell>
        <mxCell id="TrfP6EzOv8uq6AP91T5V-13" value="7 -&amp;nbsp;TamaÃ±o del ArtÃ­culo :&amp;nbsp;Unidad (cantidad de unidades), BlÃ­ster (cantidad de pastillas), Sobre (gramos), Frasco (ml)." style="text;html=1;align=center;verticalAlign=middle;resizable=0;points=[];autosize=1;strokeColor=none;fillColor=none;" parent="WIyWlLk6GJQsqaUBKTNV-1" vertex="1">
          <mxGeometry x="80" y="3140" width="640" height="30" as="geometry" />
        </mxCell>
        <mxCell id="4zn2Fc1mBMTj17oxKB6U-0" value="" style="endArrow=oval;html=1;rounded=0;exitX=1;exitY=0.25;exitDx=0;exitDy=0;startArrow=none;startFill=0;endFill=1;entryX=-0.021;entryY=0.614;entryDx=0;entryDy=0;entryPerimeter=0;" parent="WIyWlLk6GJQsqaUBKTNV-1" source="Yx2THoh6e4f52CFqJNST-3" target="Yx2THoh6e4f52CFqJNST-37" edge="1">
          <mxGeometry width="50" height="50" relative="1" as="geometry">
            <mxPoint x="890" y="1620" as="sourcePoint" />
            <mxPoint x="1100.27" y="1559" as="targetPoint" />
          </mxGeometry>
        </mxCell>
        <mxCell id="4zn2Fc1mBMTj17oxKB6U-1" value="" style="endArrow=oval;html=1;rounded=0;exitX=0;exitY=0.25;exitDx=0;exitDy=0;startArrow=none;startFill=0;endFill=1;entryX=1.027;entryY=0.757;entryDx=0;entryDy=0;entryPerimeter=0;" parent="WIyWlLk6GJQsqaUBKTNV-1" source="Yx2THoh6e4f52CFqJNST-3" target="Yx2THoh6e4f52CFqJNST-36" edge="1">
          <mxGeometry width="50" height="50" relative="1" as="geometry">
            <mxPoint x="440" y="2073" as="sourcePoint" />
            <mxPoint x="675.27" y="1540.44" as="targetPoint" />
          </mxGeometry>
        </mxCell>
        <mxCell id="4zn2Fc1mBMTj17oxKB6U-2" value="" style="endArrow=oval;html=1;rounded=0;exitX=0;exitY=0.75;exitDx=0;exitDy=0;startArrow=none;startFill=0;endFill=1;entryX=1.003;entryY=0.761;entryDx=0;entryDy=0;entryPerimeter=0;" parent="WIyWlLk6GJQsqaUBKTNV-1" source="Yx2THoh6e4f52CFqJNST-2" target="Yx2THoh6e4f52CFqJNST-32" edge="1">
          <mxGeometry width="50" height="50" relative="1" as="geometry">
            <mxPoint x="450" y="2083" as="sourcePoint" />
            <mxPoint x="125" y="1650" as="targetPoint" />
          </mxGeometry>
        </mxCell>
        <mxCell id="4zn2Fc1mBMTj17oxKB6U-4" value="" style="endArrow=oval;html=1;rounded=0;exitX=0;exitY=0;exitDx=0;exitDy=0;startArrow=none;startFill=0;endFill=1;entryX=0.971;entryY=1.046;entryDx=0;entryDy=0;entryPerimeter=0;" parent="WIyWlLk6GJQsqaUBKTNV-1" source="Yx2THoh6e4f52CFqJNST-2" target="Yx2THoh6e4f52CFqJNST-28" edge="1">
          <mxGeometry width="50" height="50" relative="1" as="geometry">
            <mxPoint x="245" y="1673" as="sourcePoint" />
            <mxPoint x="125" y="1660" as="targetPoint" />
          </mxGeometry>
        </mxCell>
        <mxCell id="4zn2Fc1mBMTj17oxKB6U-5" value="" style="endArrow=oval;html=1;rounded=0;startArrow=none;startFill=0;endFill=1;entryX=0.009;entryY=0.633;entryDx=0;entryDy=0;entryPerimeter=0;" parent="WIyWlLk6GJQsqaUBKTNV-1" target="Yx2THoh6e4f52CFqJNST-31" edge="1">
          <mxGeometry width="50" height="50" relative="1" as="geometry">
            <mxPoint x="899" y="1078" as="sourcePoint" />
            <mxPoint x="1060" y="1078" as="targetPoint" />
          </mxGeometry>
        </mxCell>
        <mxCell id="4zn2Fc1mBMTj17oxKB6U-6" value="" style="endArrow=oval;html=1;rounded=0;exitX=1;exitY=0.5;exitDx=0;exitDy=0;startArrow=none;startFill=0;endFill=1;entryX=-0.062;entryY=0.467;entryDx=0;entryDy=0;entryPerimeter=0;" parent="WIyWlLk6GJQsqaUBKTNV-1" source="Yx2THoh6e4f52CFqJNST-2" target="Yx2THoh6e4f52CFqJNST-30" edge="1">
          <mxGeometry width="50" height="50" relative="1" as="geometry">
            <mxPoint x="1010" y="1115" as="sourcePoint" />
            <mxPoint x="1091.7199999999998" y="1157.56" as="targetPoint" />
          </mxGeometry>
        </mxCell>
        <mxCell id="4zn2Fc1mBMTj17oxKB6U-7" value="" style="endArrow=oval;html=1;rounded=0;exitX=1;exitY=1;exitDx=0;exitDy=0;startArrow=none;startFill=0;endFill=1;entryX=-0.019;entryY=0.508;entryDx=0;entryDy=0;entryPerimeter=0;" parent="WIyWlLk6GJQsqaUBKTNV-1" source="Yx2THoh6e4f52CFqJNST-2" target="Yx2THoh6e4f52CFqJNST-29" edge="1">
          <mxGeometry width="50" height="50" relative="1" as="geometry">
            <mxPoint x="1020" y="1125" as="sourcePoint" />
            <mxPoint x="1073.1100000000001" y="1230.44" as="targetPoint" />
          </mxGeometry>
        </mxCell>
        <mxCell id="4zn2Fc1mBMTj17oxKB6U-8" value="" style="endArrow=oval;html=1;rounded=0;exitX=0;exitY=0.75;exitDx=0;exitDy=0;startArrow=none;startFill=0;endFill=1;entryX=1.035;entryY=0.475;entryDx=0;entryDy=0;entryPerimeter=0;" parent="WIyWlLk6GJQsqaUBKTNV-1" source="Yx2THoh6e4f52CFqJNST-1" target="Yx2THoh6e4f52CFqJNST-18" edge="1">
          <mxGeometry width="50" height="50" relative="1" as="geometry">
            <mxPoint x="310" y="1475" as="sourcePoint" />
            <mxPoint x="257" y="1432" as="targetPoint" />
          </mxGeometry>
        </mxCell>
        <mxCell id="4zn2Fc1mBMTj17oxKB6U-9" value="" style="endArrow=oval;html=1;rounded=0;exitX=0;exitY=0.25;exitDx=0;exitDy=0;startArrow=none;startFill=0;endFill=1;entryX=1.035;entryY=0.654;entryDx=0;entryDy=0;entryPerimeter=0;" parent="WIyWlLk6GJQsqaUBKTNV-1" source="Yx2THoh6e4f52CFqJNST-1" target="Yx2THoh6e4f52CFqJNST-17" edge="1">
          <mxGeometry width="50" height="50" relative="1" as="geometry">
            <mxPoint x="310" y="1118" as="sourcePoint" />
            <mxPoint x="213" y="1060" as="targetPoint" />
          </mxGeometry>
        </mxCell>
        <mxCell id="4zn2Fc1mBMTj17oxKB6U-10" value="" style="endArrow=oval;html=1;rounded=0;exitX=1;exitY=0.25;exitDx=0;exitDy=0;startArrow=none;startFill=0;endFill=1;entryX=0.024;entryY=0.475;entryDx=0;entryDy=0;entryPerimeter=0;" parent="WIyWlLk6GJQsqaUBKTNV-1" source="Yx2THoh6e4f52CFqJNST-1" target="Yx2THoh6e4f52CFqJNST-19" edge="1">
          <mxGeometry width="50" height="50" relative="1" as="geometry">
            <mxPoint x="320" y="1128" as="sourcePoint" />
            <mxPoint x="223" y="1129" as="targetPoint" />
          </mxGeometry>
        </mxCell>
        <mxCell id="4zn2Fc1mBMTj17oxKB6U-13" value="" style="endArrow=oval;html=1;rounded=0;exitX=1.016;exitY=0.656;exitDx=0;exitDy=0;startArrow=none;startFill=0;endFill=1;entryX=-0.011;entryY=0.404;entryDx=0;entryDy=0;entryPerimeter=0;exitPerimeter=0;" parent="WIyWlLk6GJQsqaUBKTNV-1" source="Yx2THoh6e4f52CFqJNST-1" target="Yx2THoh6e4f52CFqJNST-20" edge="1">
          <mxGeometry width="50" height="50" relative="1" as="geometry">
            <mxPoint x="510" y="1073" as="sourcePoint" />
            <mxPoint x="569" y="1069" as="targetPoint" />
          </mxGeometry>
        </mxCell>
        <mxCell id="4zn2Fc1mBMTj17oxKB6U-14" value="" style="endArrow=oval;html=1;rounded=0;exitX=0;exitY=0.5;exitDx=0;exitDy=0;startArrow=none;startFill=0;endFill=1;entryX=1.002;entryY=1.011;entryDx=0;entryDy=0;entryPerimeter=0;" parent="WIyWlLk6GJQsqaUBKTNV-1" source="Yx2THoh6e4f52CFqJNST-4" target="Yx2THoh6e4f52CFqJNST-53" edge="1">
          <mxGeometry width="50" height="50" relative="1" as="geometry">
            <mxPoint x="310" y="757" as="sourcePoint" />
            <mxPoint x="203" y="760" as="targetPoint" />
            <Array as="points">
              <mxPoint x="390" y="760" />
            </Array>
          </mxGeometry>
        </mxCell>
        <mxCell id="4zn2Fc1mBMTj17oxKB6U-15" value="" style="endArrow=oval;html=1;rounded=0;exitX=0.093;exitY=-0.011;exitDx=0;exitDy=0;startArrow=none;startFill=0;endFill=1;entryX=0.573;entryY=1.1;entryDx=0;entryDy=0;entryPerimeter=0;exitPerimeter=0;" parent="WIyWlLk6GJQsqaUBKTNV-1" source="Yx2THoh6e4f52CFqJNST-4" target="Yx2THoh6e4f52CFqJNST-46" edge="1">
          <mxGeometry width="50" height="50" relative="1" as="geometry">
            <mxPoint x="307" y="650" as="sourcePoint" />
            <mxPoint x="200" y="653" as="targetPoint" />
          </mxGeometry>
        </mxCell>
        <mxCell id="4zn2Fc1mBMTj17oxKB6U-16" value="" style="endArrow=oval;html=1;rounded=0;exitX=0.75;exitY=0;exitDx=0;exitDy=0;startArrow=none;startFill=0;endFill=1;entryX=0.271;entryY=1.082;entryDx=0;entryDy=0;entryPerimeter=0;" parent="WIyWlLk6GJQsqaUBKTNV-1" source="Yx2THoh6e4f52CFqJNST-4" target="Yx2THoh6e4f52CFqJNST-47" edge="1">
          <mxGeometry width="50" height="50" relative="1" as="geometry">
            <mxPoint x="329" y="679" as="sourcePoint" />
            <mxPoint x="326" y="639" as="targetPoint" />
          </mxGeometry>
        </mxCell>
        <mxCell id="4zn2Fc1mBMTj17oxKB6U-17" value="" style="endArrow=oval;html=1;rounded=0;exitX=0.198;exitY=0.019;exitDx=0;exitDy=0;startArrow=none;startFill=0;endFill=1;entryX=0.519;entryY=1.043;entryDx=0;entryDy=0;entryPerimeter=0;exitPerimeter=0;" parent="WIyWlLk6GJQsqaUBKTNV-1" source="Yx2THoh6e4f52CFqJNST-0" target="Yx2THoh6e4f52CFqJNST-7" edge="1">
          <mxGeometry width="50" height="50" relative="1" as="geometry">
            <mxPoint x="373" y="187" as="sourcePoint" />
            <mxPoint x="370" y="147" as="targetPoint" />
          </mxGeometry>
        </mxCell>
        <mxCell id="4zn2Fc1mBMTj17oxKB6U-18" value="" style="endArrow=oval;html=1;rounded=0;startArrow=none;startFill=0;endFill=1;entryX=0.255;entryY=1.007;entryDx=0;entryDy=0;entryPerimeter=0;" parent="WIyWlLk6GJQsqaUBKTNV-1" target="Yx2THoh6e4f52CFqJNST-9" edge="1">
          <mxGeometry width="50" height="50" relative="1" as="geometry">
            <mxPoint x="573" y="147" as="sourcePoint" />
            <mxPoint x="492" y="112" as="targetPoint" />
          </mxGeometry>
        </mxCell>
        <mxCell id="4zn2Fc1mBMTj17oxKB6U-19" value="" style="endArrow=oval;html=1;rounded=0;startArrow=none;startFill=0;endFill=1;entryX=-0.044;entryY=0.439;entryDx=0;entryDy=0;entryPerimeter=0;exitX=1;exitY=0.25;exitDx=0;exitDy=0;" parent="WIyWlLk6GJQsqaUBKTNV-1" source="Yx2THoh6e4f52CFqJNST-0" target="Yx2THoh6e4f52CFqJNST-11" edge="1">
          <mxGeometry width="50" height="50" relative="1" as="geometry">
            <mxPoint x="583" y="157" as="sourcePoint" />
            <mxPoint x="583" y="110" as="targetPoint" />
          </mxGeometry>
        </mxCell>
        <mxCell id="4zn2Fc1mBMTj17oxKB6U-21" value="" style="endArrow=oval;html=1;rounded=0;entryX=0.5;entryY=1;entryDx=0;entryDy=0;exitX=0.5;exitY=0;exitDx=0;exitDy=0;startArrow=none;startFill=0;endFill=1;startSize=6;endSize=15;" parent="WIyWlLk6GJQsqaUBKTNV-1" source="Yx2THoh6e4f52CFqJNST-4" target="Yx2THoh6e4f52CFqJNST-64" edge="1">
          <mxGeometry width="50" height="50" relative="1" as="geometry">
            <mxPoint x="553.8199999999999" y="540" as="sourcePoint" />
            <mxPoint x="554.8199999999999" y="450" as="targetPoint" />
          </mxGeometry>
        </mxCell>
        <mxCell id="4zn2Fc1mBMTj17oxKB6U-22" value="" style="endArrow=oval;html=1;rounded=0;exitX=1;exitY=0.25;exitDx=0;exitDy=0;startArrow=none;startFill=0;endFill=1;entryX=0.121;entryY=1.11;entryDx=0;entryDy=0;entryPerimeter=0;" parent="WIyWlLk6GJQsqaUBKTNV-1" source="Yx2THoh6e4f52CFqJNST-4" target="Yx2THoh6e4f52CFqJNST-48" edge="1">
          <mxGeometry width="50" height="50" relative="1" as="geometry">
            <mxPoint x="502.5" y="687" as="sourcePoint" />
            <mxPoint x="512.5" y="640" as="targetPoint" />
          </mxGeometry>
        </mxCell>
        <mxCell id="4zn2Fc1mBMTj17oxKB6U-23" value="" style="endArrow=oval;html=1;rounded=0;exitX=1;exitY=0.5;exitDx=0;exitDy=0;startArrow=none;startFill=0;endFill=1;entryX=-0.013;entryY=0.978;entryDx=0;entryDy=0;entryPerimeter=0;" parent="WIyWlLk6GJQsqaUBKTNV-1" source="Yx2THoh6e4f52CFqJNST-4" target="Yx2THoh6e4f52CFqJNST-49" edge="1">
          <mxGeometry width="50" height="50" relative="1" as="geometry">
            <mxPoint x="472" y="690" as="sourcePoint" />
            <mxPoint x="482" y="643" as="targetPoint" />
          </mxGeometry>
        </mxCell>
        <mxCell id="4zn2Fc1mBMTj17oxKB6U-25" value="" style="endArrow=none;html=1;rounded=0;entryX=0.5;entryY=0;entryDx=0;entryDy=0;exitX=0;exitY=1;exitDx=0;exitDy=0;startArrow=none;startFill=0;endFill=1;startSize=6;endSize=15;" parent="WIyWlLk6GJQsqaUBKTNV-1" source="Yx2THoh6e4f52CFqJNST-4" target="Yx2THoh6e4f52CFqJNST-67" edge="1">
          <mxGeometry width="50" height="50" relative="1" as="geometry">
            <mxPoint x="411" y="680" as="sourcePoint" />
            <mxPoint x="405" y="490" as="targetPoint" />
          </mxGeometry>
        </mxCell>
        <mxCell id="jgVkbJ1t0bqWAsZ4cVgq-0" value="" style="endArrow=none;html=1;rounded=0;entryX=1;entryY=1;entryDx=0;entryDy=0;endFill=0;startArrow=none;startFill=0;strokeWidth=1;endSize=15;startSize=15;" parent="WIyWlLk6GJQsqaUBKTNV-1" target="Yx2THoh6e4f52CFqJNST-4" edge="1">
          <mxGeometry width="50" height="50" relative="1" as="geometry">
            <mxPoint x="800" y="830" as="sourcePoint" />
            <mxPoint x="809" y="1065" as="targetPoint" />
          </mxGeometry>
        </mxCell>
        <mxCell id="jgVkbJ1t0bqWAsZ4cVgq-1" value="" style="endArrow=oval;html=1;rounded=0;entryX=0.5;entryY=1;entryDx=0;entryDy=0;exitX=0.5;exitY=0;exitDx=0;exitDy=0;startArrow=none;startFill=0;endFill=1;startSize=6;endSize=15;" parent="WIyWlLk6GJQsqaUBKTNV-1" source="Yx2THoh6e4f52CFqJNST-2" target="Yx2THoh6e4f52CFqJNST-68" edge="1">
          <mxGeometry width="50" height="50" relative="1" as="geometry">
            <mxPoint x="265" y="1000" as="sourcePoint" />
            <mxPoint x="265" y="970" as="targetPoint" />
          </mxGeometry>
        </mxCell>
      </root>
    </mxGraphModel>
  </diagram>
</mxfile>
